<mxfile host="app.diagrams.net" modified="2021-04-13T02:02:03.803Z" agent="5.0 (Macintosh; Intel Mac OS X 11_2_1) AppleWebKit/537.36 (KHTML, like Gecko) Chrome/88.0.4324.150 Safari/537.36" etag="TuPzyJCnrR_cNDXL2bUU" version="14.5.1" type="github">
  <diagram id="Yjjd4iymPNlZoRnGIAg2" name="Page-1">
    <mxGraphModel dx="1033" dy="592" grid="1" gridSize="10" guides="1" tooltips="1" connect="1" arrows="1" fold="1" page="1" pageScale="1" pageWidth="827" pageHeight="1169" math="0" shadow="0">
      <root>
        <mxCell id="0" />
        <mxCell id="1" parent="0" />
        <mxCell id="y3p8oQp4nrf6NhNMhpHg-13" style="edgeStyle=orthogonalEdgeStyle;rounded=0;orthogonalLoop=1;jettySize=auto;html=1;entryX=0;entryY=0.5;entryDx=0;entryDy=0;" parent="1" source="y3p8oQp4nrf6NhNMhpHg-9" target="y3p8oQp4nrf6NhNMhpHg-10" edge="1">
          <mxGeometry relative="1" as="geometry">
            <Array as="points">
              <mxPoint x="140" y="357" />
              <mxPoint x="140" y="300" />
            </Array>
          </mxGeometry>
        </mxCell>
        <mxCell id="y3p8oQp4nrf6NhNMhpHg-15" style="edgeStyle=orthogonalEdgeStyle;rounded=0;orthogonalLoop=1;jettySize=auto;html=1;entryX=0;entryY=0.5;entryDx=0;entryDy=0;" parent="1" source="y3p8oQp4nrf6NhNMhpHg-9" target="9Oy1wkQBKMkyRiAAsawv-2" edge="1">
          <mxGeometry relative="1" as="geometry">
            <mxPoint x="230" y="425" as="targetPoint" />
            <Array as="points">
              <mxPoint x="140" y="357" />
              <mxPoint x="140" y="390" />
            </Array>
          </mxGeometry>
        </mxCell>
        <mxCell id="y3p8oQp4nrf6NhNMhpHg-9" value="应用配置完成" style="rounded=0;whiteSpace=wrap;html=1;" parent="1" vertex="1">
          <mxGeometry x="40" y="250" width="40" height="188" as="geometry" />
        </mxCell>
        <mxCell id="9Oy1wkQBKMkyRiAAsawv-3" style="edgeStyle=orthogonalEdgeStyle;rounded=0;orthogonalLoop=1;jettySize=auto;html=1;entryX=0.5;entryY=0;entryDx=0;entryDy=0;" parent="1" source="y3p8oQp4nrf6NhNMhpHg-10" target="9Oy1wkQBKMkyRiAAsawv-2" edge="1">
          <mxGeometry relative="1" as="geometry" />
        </mxCell>
        <mxCell id="y3p8oQp4nrf6NhNMhpHg-10" value="dts增量/全量" style="rounded=0;whiteSpace=wrap;html=1;" parent="1" vertex="1">
          <mxGeometry x="170" y="270" width="120" height="60" as="geometry" />
        </mxCell>
        <mxCell id="9Oy1wkQBKMkyRiAAsawv-6" value="" style="edgeStyle=orthogonalEdgeStyle;rounded=0;orthogonalLoop=1;jettySize=auto;html=1;" parent="1" source="9Oy1wkQBKMkyRiAAsawv-2" target="9Oy1wkQBKMkyRiAAsawv-5" edge="1">
          <mxGeometry relative="1" as="geometry" />
        </mxCell>
        <mxCell id="9Oy1wkQBKMkyRiAAsawv-2" value="全量文件检查" style="rounded=0;whiteSpace=wrap;html=1;" parent="1" vertex="1">
          <mxGeometry x="300" y="360" width="120" height="60" as="geometry" />
        </mxCell>
        <mxCell id="9Oy1wkQBKMkyRiAAsawv-8" value="" style="edgeStyle=orthogonalEdgeStyle;rounded=0;orthogonalLoop=1;jettySize=auto;html=1;" parent="1" source="9Oy1wkQBKMkyRiAAsawv-5" target="9Oy1wkQBKMkyRiAAsawv-7" edge="1">
          <mxGeometry relative="1" as="geometry" />
        </mxCell>
        <mxCell id="9Oy1wkQBKMkyRiAAsawv-5" value="全量索引计算" style="whiteSpace=wrap;html=1;rounded=0;" parent="1" vertex="1">
          <mxGeometry x="470" y="360" width="120" height="60" as="geometry" />
        </mxCell>
        <mxCell id="9Oy1wkQBKMkyRiAAsawv-10" value="" style="edgeStyle=orthogonalEdgeStyle;rounded=0;orthogonalLoop=1;jettySize=auto;html=1;" parent="1" source="9Oy1wkQBKMkyRiAAsawv-7" target="9Oy1wkQBKMkyRiAAsawv-9" edge="1">
          <mxGeometry relative="1" as="geometry" />
        </mxCell>
        <mxCell id="9Oy1wkQBKMkyRiAAsawv-7" value="索引元信息创建" style="whiteSpace=wrap;html=1;rounded=0;" parent="1" vertex="1">
          <mxGeometry x="470" y="480" width="120" height="60" as="geometry" />
        </mxCell>
        <mxCell id="9Oy1wkQBKMkyRiAAsawv-12" value="" style="edgeStyle=orthogonalEdgeStyle;rounded=0;orthogonalLoop=1;jettySize=auto;html=1;" parent="1" source="9Oy1wkQBKMkyRiAAsawv-9" target="9Oy1wkQBKMkyRiAAsawv-11" edge="1">
          <mxGeometry relative="1" as="geometry" />
        </mxCell>
        <mxCell id="9Oy1wkQBKMkyRiAAsawv-9" value="离线索引加载" style="whiteSpace=wrap;html=1;rounded=0;" parent="1" vertex="1">
          <mxGeometry x="470" y="580" width="120" height="60" as="geometry" />
        </mxCell>
        <mxCell id="PrsttA66mwOKF6uBJdL--2" value="" style="edgeStyle=orthogonalEdgeStyle;rounded=0;orthogonalLoop=1;jettySize=auto;html=1;" edge="1" parent="1" source="9Oy1wkQBKMkyRiAAsawv-11" target="PrsttA66mwOKF6uBJdL--1">
          <mxGeometry relative="1" as="geometry" />
        </mxCell>
        <mxCell id="9Oy1wkQBKMkyRiAAsawv-11" value="增量索引计算" style="whiteSpace=wrap;html=1;rounded=0;" parent="1" vertex="1">
          <mxGeometry x="270" y="580" width="120" height="60" as="geometry" />
        </mxCell>
        <mxCell id="PrsttA66mwOKF6uBJdL--1" value="增量索引同步成功" style="whiteSpace=wrap;html=1;rounded=0;" vertex="1" parent="1">
          <mxGeometry x="70" y="580" width="120" height="60" as="geometry" />
        </mxCell>
        <mxCell id="PrsttA66mwOKF6uBJdL--5" value="&lt;font color=&quot;#ff3333&quot;&gt;激活&lt;/font&gt;" style="text;html=1;align=center;verticalAlign=middle;resizable=0;points=[];autosize=1;" vertex="1" parent="1">
          <mxGeometry x="90" y="320" width="40" height="20" as="geometry" />
        </mxCell>
      </root>
    </mxGraphModel>
  </diagram>
</mxfile>
